<?xml version="1.0" encoding="UTF-8" standalone="no"?>
<svg
   xmlns:dc="http://purl.org/dc/elements/1.1/"
   xmlns:cc="http://creativecommons.org/ns#"
   xmlns:rdf="http://www.w3.org/1999/02/22-rdf-syntax-ns#"
   xmlns:svg="http://www.w3.org/2000/svg"
   xmlns="http://www.w3.org/2000/svg"
   xmlns:sodipodi="http://sodipodi.sourceforge.net/DTD/sodipodi-0.dtd"
   xmlns:inkscape="http://www.inkscape.org/namespaces/inkscape"
   width="60mm"
   height="14mm"
   viewBox="0 0 60 13.999991"
   version="1.1"
   id="svg8"
   inkscape:version="1.0.2 (1.0.2+r75+1)"
   sodipodi:docname="drawing.svg">
  <defs
     id="defs2">
    <filter
       id="filter0_d"
       x="0.43896499"
       y="0.79931599"
       width="233.748"
       height="52.341301"
       filterUnits="userSpaceOnUse"
       color-interpolation-filters="sRGB">
      <feFlood
         flood-opacity="0"
         result="BackgroundImageFix"
         id="feFlood27" />
      <feColorMatrix
         in="SourceAlpha"
         type="matrix"
         values="0 0 0 0 0 0 0 0 0 0 0 0 0 0 0 0 0 0 127 0"
         id="feColorMatrix29" />
      <feOffset
         id="feOffset31" />
      <feGaussianBlur
         stdDeviation="2.5"
         id="feGaussianBlur33" />
      <feColorMatrix
         type="matrix"
         values="0 0 0 0 0 0 0 0 0 0 0 0 0 0 0 0 0 0 0.3 0"
         id="feColorMatrix35" />
      <feBlend
         mode="normal"
         in2="BackgroundImageFix"
         result="effect1_dropShadow"
         id="feBlend37" />
      <feBlend
         mode="normal"
         in="SourceGraphic"
         in2="effect1_dropShadow"
         result="shape"
         id="feBlend39" />
    </filter>
    <filter
       id="filter0_d-4"
       x="0.43896499"
       y="0.79931599"
       width="233.748"
       height="52.341301"
       filterUnits="userSpaceOnUse"
       color-interpolation-filters="sRGB">
      <feFlood
         flood-opacity="0"
         result="BackgroundImageFix"
         id="feFlood79" />
      <feColorMatrix
         in="SourceAlpha"
         type="matrix"
         values="0 0 0 0 0 0 0 0 0 0 0 0 0 0 0 0 0 0 127 0"
         id="feColorMatrix81" />
      <feOffset
         id="feOffset83" />
      <feGaussianBlur
         stdDeviation="2.5"
         id="feGaussianBlur85" />
      <feColorMatrix
         type="matrix"
         values="0 0 0 0 0 0 0 0 0 0 0 0 0 0 0 0 0 0 0.3 0"
         id="feColorMatrix87" />
      <feBlend
         mode="normal"
         in2="BackgroundImageFix"
         result="effect1_dropShadow"
         id="feBlend89" />
      <feBlend
         mode="normal"
         in="SourceGraphic"
         in2="effect1_dropShadow"
         result="shape"
         id="feBlend91" />
    </filter>
  </defs>
  <sodipodi:namedview
     id="base"
     pagecolor="#ffffff"
     bordercolor="#666666"
     borderopacity="1.0"
     inkscape:pageopacity="0.0"
     inkscape:pageshadow="2"
     inkscape:zoom="2.8"
     inkscape:cx="132.07837"
     inkscape:cy="-3.7057869"
     inkscape:document-units="mm"
     inkscape:current-layer="layer1"
     inkscape:document-rotation="0"
     showgrid="false"
     inkscape:window-width="1920"
     inkscape:window-height="966"
     inkscape:window-x="0"
     inkscape:window-y="27"
     inkscape:window-maximized="1"
     scale-x="1" />
  <metadata
     id="metadata5">
    <rdf:RDF>
      <cc:Work
         rdf:about="">
        <dc:format>image/svg+xml</dc:format>
        <dc:type
           rdf:resource="http://purl.org/dc/dcmitype/StillImage" />
        <dc:title></dc:title>
      </cc:Work>
    </rdf:RDF>
  </metadata>
  <g
     inkscape:label="Layer 1"
     inkscape:groupmode="layer"
     id="layer1">
    <g
       style="fill:none"
       id="g21"
       transform="matrix(0.26458333,0,0,0.26458333,0.10972313,0.30372933)">
      <path
         d="m 9.71191,6.90967 c 0,1.0498 -0.18554,1.97021 -0.55664,2.76123 -0.37109,0.791 -0.90332,1.4014 -1.59668,1.8311 -0.68847,0.4296 -1.47949,0.6445 -2.37304,0.6445 -0.88379,0 -1.67237,-0.2124 -2.36573,-0.6372 C 2.12646,11.0845 1.58936,10.479 1.2085,9.69287 0.827637,8.90186 0.634766,7.99365 0.629883,6.96826 V 6.44092 c 0,-1.04981 0.187988,-1.97266 0.563967,-2.76856 C 1.57471,2.87158 2.10938,2.25879 2.79785,1.83398 3.49121,1.4043 4.28223,1.18945 5.1709,1.18945 c 0.88867,0 1.67724,0.21485 2.36572,0.64453 0.69336,0.42481 1.22803,1.0376 1.604,1.83838 0.38086,0.7959 0.57129,1.71631 0.57129,2.76123 z M 7.48535,6.42627 C 7.48535,5.30811 7.28516,4.4585 6.88477,3.87744 6.48438,3.29639 5.91309,3.00586 5.1709,3.00586 4.43359,3.00586 3.86475,3.29395 3.46436,3.87012 3.06396,4.44141 2.86133,5.28125 2.85645,6.38965 v 0.52002 c 0,1.08887 0.20019,1.93359 0.60058,2.53418 0.40039,0.60055 0.97656,0.90085 1.72852,0.90085 0.7373,0 1.30371,-0.2881 1.69922,-0.86423 0.3955,-0.58106 0.5957,-1.42578 0.60058,-2.53418 z M 13.4033,12 h -2.124 V 0.75 h 2.124 z m 6.3428,0 c -0.0977,-0.1904 -0.1685,-0.4272 -0.2124,-0.7104 -0.5127,0.5712 -1.1792,0.8569 -1.9995,0.8569 -0.7764,0 -1.4209,-0.2246 -1.9336,-0.6738 -0.5078,-0.4493 -0.7617,-1.0157 -0.7617,-1.69926 0,-0.83985 0.31,-1.48438 0.9301,-1.9336 0.625,-0.44922 1.5259,-0.67627 2.7027,-0.68115 h 0.9741 v -0.4541 c 0,-0.36621 -0.0952,-0.65918 -0.2856,-0.87891 -0.1856,-0.21972 -0.481,-0.32959 -0.8863,-0.32959 -0.3564,0 -0.6372,0.08545 -0.8423,0.25635 -0.2002,0.1709 -0.3003,0.40527 -0.3003,0.70313 h -2.1167 c 0,-0.45899 0.1416,-0.88379 0.4249,-1.27442 0.2832,-0.39062 0.6835,-0.6958 1.2011,-0.91553 0.5176,-0.2246 1.0987,-0.33691 1.7432,-0.33691 0.9766,0 1.7505,0.24658 2.3218,0.73975 0.5761,0.48828 0.8642,1.17675 0.8642,2.06543 v 3.43501 c 0.0049,0.752 0.1099,1.3208 0.315,1.7066 V 12 Z m -1.7505,-1.4722 c 0.3125,0 0.6006,-0.0683 0.8643,-0.205 0.2636,-0.1416 0.4589,-0.32964 0.5859,-0.56401 V 8.39648 h -0.791 c -1.0596,0 -1.6236,0.36622 -1.6919,1.09864 l -0.0073,0.12451 c 0,0.26367 0.0927,0.48097 0.2783,0.65187 0.1855,0.1709 0.4394,0.2563 0.7617,0.2563 z M 18.8013,0.75 h 2.3071 l -2.0288,2.27051 h -1.7212 z m 4.563,13.374 -0.7691,-0.5273 c 0.459,-0.6397 0.6983,-1.2988 0.7178,-1.9776 V 10.396 h 1.3257 v 1.062 c 0,0.4932 -0.1221,0.9863 -0.3662,1.4795 -0.2393,0.4932 -0.542,0.8887 -0.9082,1.1865 z m 9.3237,-3.9624 1.9629,-6.0864 h 1.3843 L 33.1934,12 h -1.0328 l -2.871,-7.9248 h 1.3842 z m 4.1748,-2.19724 c 0,-0.77637 0.1514,-1.47461 0.4541,-2.09473 0.3076,-0.62012 0.7324,-1.09863 1.2744,-1.43555 0.5469,-0.33691 1.1694,-0.50537 1.8677,-0.50537 1.0791,0 1.9507,0.37354 2.6147,1.12061 0.669,0.74707 1.0034,1.74072 1.0034,2.98095 v 0.09522 c 0,0.77148 -0.1489,1.46484 -0.4467,2.08011 -0.293,0.6103 -0.7154,1.0864 -1.2671,1.4282 -0.5469,0.3418 -1.1768,0.5127 -1.8897,0.5127 -1.0742,0 -1.9458,-0.3736 -2.6147,-1.1206 -0.6641,-0.7471 -0.9961,-1.73586 -0.9961,-2.96633 z m 1.3623,0.16113 c 0,0.8789 0.2026,1.58447 0.6079,2.11671 0.4102,0.5322 0.957,0.7983 1.6406,0.7983 0.6885,0 1.2354,-0.2685 1.6407,-0.8056 0.4052,-0.54203 0.6079,-1.29886 0.6079,-2.27054 0,-0.86915 -0.2076,-1.57227 -0.6226,-2.10938 -0.4101,-0.54199 -0.957,-0.81299 -1.6406,-0.81299 -0.669,0 -1.2085,0.26612 -1.6187,0.79834 -0.4101,0.53223 -0.6152,1.29395 -0.6152,2.28516 z m 10.73,2.91501 c 0.4834,0 0.9057,-0.1465 1.2671,-0.4394 0.3613,-0.293 0.5615,-0.65921 0.6006,-1.09866 h 1.2817 c -0.0244,0.4541 -0.1807,0.88626 -0.4688,1.29636 -0.288,0.4102 -0.6738,0.7373 -1.1572,0.9815 -0.4785,0.2441 -0.9863,0.3662 -1.5234,0.3662 -1.0791,0 -1.9385,-0.3589 -2.5781,-1.0767 C 45.7422,10.3472 45.4248,9.36084 45.4248,8.11084 V 7.88379 c 0,-0.77149 0.1416,-1.45752 0.4248,-2.05811 0.2832,-0.60058 0.6885,-1.06689 1.2158,-1.39892 0.5323,-0.33203 1.1597,-0.49805 1.8824,-0.49805 0.8886,0 1.6259,0.26611 2.2119,0.79834 0.5908,0.53223 0.9057,1.22315 0.9448,2.07275 H 50.8228 C 50.7837,6.28711 50.5884,5.86719 50.2368,5.54004 49.8901,5.20801 49.4604,5.04199 48.9478,5.04199 c -0.6885,0 -1.2232,0.24903 -1.604,0.74707 -0.376,0.49317 -0.564,1.2085 -0.564,2.146 v 0.25635 c 0,0.91308 0.188,1.61621 0.564,2.10939 0.3759,0.4931 0.913,0.7397 1.6113,0.7397 z m 7.9614,1.106 c -1.0742,0 -1.9482,-0.3516 -2.6221,-1.0547 -0.6738,-0.708 -1.0107,-1.65284 -1.0107,-2.83448 V 8.0083 c 0,-0.78613 0.1489,-1.48682 0.4468,-2.10205 0.3027,-0.62012 0.7226,-1.10352 1.2597,-1.4502 0.542,-0.35156 1.128,-0.52734 1.7578,-0.52734 1.0303,0 1.8311,0.33936 2.4024,1.01807 0.5713,0.67871 0.8569,1.65039 0.8569,2.91504 v 0.56396 h -5.3686 c 0.0195,0.78125 0.2466,1.41358 0.6811,1.89702 0.4395,0.4785 0.9961,0.7177 1.6699,0.7177 0.4786,0 0.8838,-0.0976 1.2159,-0.2929 0.332,-0.1954 0.6225,-0.4541 0.8715,-0.77641 l 0.8277,0.64451 c -0.6641,1.0205 -1.6602,1.5308 -2.9883,1.5308 z M 56.748,5.04199 c -0.5468,0 -1.0058,0.2002 -1.3769,0.60059 C 55,6.03809 54.7705,6.59473 54.6826,7.3125 h 3.9697 V 7.20996 C 58.6133,6.52148 58.4277,5.98926 58.0957,5.61328 57.7637,5.23242 57.3145,5.04199 56.748,5.04199 Z M 58.96,2.75684 V 2.83008 H 57.8394 L 56.7407,1.58496 55.6494,2.83008 H 54.5288 V 2.74219 L 56.3306,0.75 h 0.8203 z m 9.6313,9.38966 c -1.0742,0 -1.9482,-0.3516 -2.6221,-1.0547 -0.6738,-0.708 -1.0107,-1.65284 -1.0107,-2.83448 V 8.0083 c 0,-0.78613 0.1489,-1.48682 0.4468,-2.10205 0.3027,-0.62012 0.7226,-1.10352 1.2597,-1.4502 0.542,-0.35156 1.128,-0.52734 1.7579,-0.52734 1.0302,0 1.831,0.33936 2.4023,1.01807 0.5713,0.67871 0.8569,1.65039 0.8569,2.91504 v 0.56396 h -5.3686 c 0.0195,0.78125 0.2466,1.41358 0.6811,1.89702 0.4395,0.4785 0.9961,0.7177 1.67,0.7177 0.4785,0 0.8837,-0.0976 1.2158,-0.2929 0.332,-0.1954 0.6225,-0.4541 0.8716,-0.77641 l 0.8276,0.64451 c -0.6641,1.0205 -1.6602,1.5308 -2.9883,1.5308 z M 68.4229,5.04199 c -0.5469,0 -1.0059,0.2002 -1.377,0.60059 -0.3711,0.39551 -0.6006,0.95215 -0.6885,1.66992 h 3.9697 V 7.20996 C 70.2881,6.52148 70.1025,5.98926 69.7705,5.61328 69.4385,5.23242 68.9893,5.04199 68.4229,5.04199 Z m 9.4482,4.85596 c 0,-0.36621 -0.1392,-0.64941 -0.4175,-0.84961 C 77.1802,8.84326 76.6992,8.66748 76.0107,8.521 75.3271,8.37451 74.7827,8.19873 74.3774,7.99365 73.9771,7.78857 73.6792,7.54443 73.4839,7.26123 73.2935,6.97803 73.1982,6.64111 73.1982,6.25049 c 0,-0.64942 0.2735,-1.19873 0.8204,-1.64795 0.5517,-0.44922 1.2548,-0.67383 2.1093,-0.67383 0.8985,0 1.626,0.23193 2.1826,0.6958 0.5616,0.46387 0.8423,1.05713 0.8423,1.77979 h -1.3623 c 0,-0.3711 -0.1587,-0.69092 -0.476,-0.95948 -0.3125,-0.26855 -0.7081,-0.40283 -1.1866,-0.40283 -0.4931,0 -0.8789,0.10742 -1.1572,0.32227 -0.2783,0.21484 -0.4175,0.4956 -0.4175,0.84228 0,0.32715 0.1294,0.57373 0.3882,0.73975 0.2588,0.16601 0.7251,0.32471 1.3989,0.47607 0.6787,0.15137 1.2281,0.33203 1.648,0.542 0.4199,0.20996 0.73,0.46386 0.9302,0.76171 0.205,0.29297 0.3076,0.65186 0.3076,1.07666 0,0.70797 -0.2832,1.27687 -0.8496,1.70657 -0.5664,0.4248 -1.3013,0.6372 -2.2046,0.6372 -0.6348,0 -1.1963,-0.1123 -1.6846,-0.3369 C 73.999,11.585 73.6157,11.2725 73.3374,10.8721 73.064,10.4668 72.9272,10.0298 72.9272,9.56104 h 1.355 c 0.0244,0.45406 0.2051,0.81546 0.542,1.08396 0.3418,0.2637 0.791,0.3955 1.3477,0.3955 0.5127,0 0.9228,-0.1025 1.2304,-0.3076 0.3125,-0.21 0.4688,-0.4883 0.4688,-0.83495 z m 4.9585,-7.7417 V 4.0752 h 1.4795 v 1.04736 h -1.4795 v 4.91454 c 0,0.3174 0.0659,0.5567 0.1977,0.7178 0.1319,0.1562 0.3565,0.2344 0.6739,0.2344 0.1562,0 0.3711,-0.0293 0.6445,-0.0879 V 12 c -0.3564,0.0977 -0.7031,0.1465 -1.04,0.1465 -0.6055,0 -1.062,-0.1831 -1.3697,-0.5493 -0.3076,-0.3662 -0.4614,-0.8863 -0.4614,-1.5601 V 5.12256 H 80.0317 V 4.0752 h 1.4429 V 2.15625 Z M 90.791,12 c -0.0781,-0.1562 -0.1416,-0.4346 -0.1904,-0.835 -0.6299,0.6543 -1.3818,0.9815 -2.2559,0.9815 -0.7812,0 -1.4233,-0.2197 -1.9262,-0.6592 -0.4981,-0.4443 -0.7471,-1.0059 -0.7471,-1.68457 0,-0.82519 0.3125,-1.46484 0.9375,-1.91894 0.6299,-0.45899 1.5137,-0.68848 2.6514,-0.68848 h 1.3183 V 6.57275 c 0,-0.47363 -0.1416,-0.84961 -0.4248,-1.12793 -0.2832,-0.2832 -0.7007,-0.4248 -1.2524,-0.4248 -0.4834,0 -0.8887,0.12207 -1.2159,0.36621 -0.3271,0.24414 -0.4907,0.53955 -0.4907,0.88623 h -1.3623 c 0,-0.39551 0.1392,-0.77637 0.4175,-1.14258 0.2832,-0.37109 0.6641,-0.66406 1.1426,-0.8789 0.4834,-0.21485 1.0132,-0.32227 1.5893,-0.32227 0.9131,0 1.6285,0.22949 2.146,0.68848 0.5176,0.4541 0.7862,1.08154 0.8057,1.88232 V 10.147 c 0,0.7275 0.0928,1.3061 0.2783,1.7358 V 12 Z m -2.2485,-1.0327 c 0.4248,0 0.8276,-0.1099 1.2085,-0.3296 0.3808,-0.2197 0.6567,-0.5054 0.8276,-0.85694 V 8.15479 h -1.062 c -1.6602,0 -2.4902,0.48583 -2.4902,1.45751 0,0.4248 0.1416,0.7568 0.4248,0.9961 0.2832,0.2393 0.6469,0.3589 1.0913,0.3589 z M 89.7949,0.75 h 1.6406 l -1.9628,2.15332 h -1.0914 z m 9.2652,3.3252 0.0439,0.99609 c 0.6055,-0.76172 1.396,-1.14258 2.373,-1.14258 1.675,0 2.52,0.94483 2.534,2.83447 V 12 h -1.355 V 6.75586 c -0.005,-0.57129 -0.136,-0.99365 -0.395,-1.26709 -0.254,-0.27344 -0.652,-0.41016 -1.194,-0.41016 -0.44,0 -0.825,0.11719 -1.1573,0.35157 -0.3321,0.23437 -0.5909,0.54199 -0.7764,0.92285 V 12 h -1.355 V 4.0752 Z m 6.6359,3.88916 c 0,-0.77637 0.151,-1.47461 0.454,-2.09473 0.308,-0.62012 0.732,-1.09863 1.274,-1.43555 0.547,-0.33691 1.17,-0.50537 1.868,-0.50537 1.079,0 1.951,0.37354 2.615,1.12061 0.669,0.74707 1.003,1.74072 1.003,2.98095 v 0.09522 c 0,0.77148 -0.149,1.46484 -0.447,2.08011 -0.293,0.6103 -0.715,1.0864 -1.267,1.4282 -0.547,0.3418 -1.176,0.5127 -1.889,0.5127 -1.075,0 -1.946,-0.3736 -2.615,-1.1206 -0.664,-0.7471 -0.996,-1.73586 -0.996,-2.96633 z m 1.362,0.16113 c 0,0.8789 0.203,1.58447 0.608,2.11671 0.41,0.5322 0.957,0.7983 1.641,0.7983 0.688,0 1.235,-0.2685 1.64,-0.8056 0.406,-0.54203 0.608,-1.29886 0.608,-2.27054 0,-0.86915 -0.207,-1.57227 -0.622,-2.10938 -0.411,-0.54199 -0.957,-0.81299 -1.641,-0.81299 -0.669,0 -1.209,0.26612 -1.619,0.79834 -0.41,0.53223 -0.615,1.29395 -0.615,2.28516 z"
         fill="#8c8e93"
         id="path10" />
    </g>
    <g
       style="fill:none"
       id="g73"
       transform="matrix(0.26458333,0,0,0.26458333,31.063638,1.0465393)">
      <rect
         width="103"
         height="9"
         rx="4.5"
         fill="#c4c4c4"
         id="rect62"
         x="0"
         y="0" />
    </g>
    <g
       style="fill:none"
       id="g112"
       transform="matrix(0.26458333,0,0,0.26458333,-1.1517429,1.0454993)">
      <path
         d="m 26.8403,27.3325 c 0,3.6621 -0.8349,6.5991 -2.5049,8.8111 -1.6552,2.1972 -3.8964,3.2959 -6.7236,3.2959 -2.4023,0 -4.3432,-0.835 -5.8227,-2.5049 v 11.206 H 5.43896 v -32.915 h 5.88864 l 0.2198,2.3291 c 1.538,-1.8457 3.5449,-2.7686 6.0205,-2.7686 2.9297,0 5.2075,1.084 6.8335,3.252 1.6259,2.168 2.4389,5.1562 2.4389,8.9648 z m -6.3501,-0.4614 c 0,-2.2119 -0.3955,-3.9185 -1.1865,-5.1196 -0.7764,-1.2012 -1.9116,-1.8018 -3.4058,-1.8018 -1.9921,0 -3.3618,0.7617 -4.1088,2.2852 v 9.7339 c 0.7763,1.5673 2.1606,2.351 4.1528,2.351 3.0322,0 4.5483,-2.4829 4.5483,-7.4487 z m 23.6646,-5.6909 c -0.8643,-0.1172 -1.626,-0.1758 -2.2852,-0.1758 -2.4023,0 -3.977,0.813 -4.7241,2.439 V 39 H 30.7954 V 15.2256 h 5.9985 l 0.1758,2.8345 c 1.2744,-2.1827 3.0396,-3.274 5.2954,-3.274 0.7032,0 1.3623,0.0952 1.9776,0.2857 z m 13.5791,18.2593 c -3.4863,0 -6.3281,-1.0694 -8.5254,-3.2081 -2.1826,-2.1386 -3.2739,-4.9877 -3.2739,-8.5473 v -0.6153 c 0,-2.3876 0.4614,-4.519 1.3842,-6.394 0.9229,-1.8896 2.2266,-3.3398 3.9112,-4.3506 1.6992,-1.0254 3.6328,-1.5381 5.8008,-1.5381 3.2519,0 5.8081,1.0254 7.6684,3.0762 1.875,2.0508 2.8125,4.9585 2.8125,8.7231 v 2.5928 H 52.3726 c 0.205,1.5528 0.8203,2.7979 1.8457,3.7354 1.04,0.9375 2.351,1.4062 3.9331,1.4062 2.4463,0 4.3579,-0.8862 5.7348,-2.6587 l 3.1201,3.4937 c -0.9521,1.3476 -2.2412,2.4023 -3.8671,3.164 -1.626,0.7471 -3.4278,1.1207 -5.4053,1.1207 z M 57.0088,19.9277 c -1.2598,0 -2.2852,0.4248 -3.0762,1.2744 -0.7764,0.8497 -1.2744,2.0655 -1.4941,3.6475 h 8.833 V 24.3442 C 61.2422,22.938 60.8613,21.854 60.1289,21.0923 59.3965,20.3159 58.3564,19.9277 57.0088,19.9277 Z m 27.0044,12.5025 c 0,-0.7764 -0.3882,-1.3843 -1.1646,-1.8238 -0.7617,-0.4541 -1.9922,-0.8569 -3.6914,-1.2085 -5.6543,-1.1865 -8.4814,-3.5888 -8.4814,-7.207 0,-2.1094 0.8716,-3.8672 2.6147,-5.2734 1.7578,-1.4209 4.0503,-2.1314 6.8775,-2.1314 3.0175,0 5.4272,0.7105 7.229,2.1314 1.8164,1.4209 2.7246,3.2666 2.7246,5.5371 h -6.3501 c 0,-0.9082 -0.293,-1.6553 -0.8789,-2.2412 -0.586,-0.6006 -1.5015,-0.9009 -2.7466,-0.9009 -1.0693,0 -1.897,0.2417 -2.4829,0.7251 -0.586,0.4834 -0.8789,1.0986 -0.8789,1.8457 0,0.7031 0.3296,1.2744 0.9887,1.7139 0.6739,0.4248 1.8018,0.7983 3.3838,1.1206 1.5821,0.3076 2.9151,0.6592 3.9991,1.0547 3.3545,1.2304 5.0317,3.3618 5.0317,6.394 0,2.168 -0.9302,3.9258 -2.7905,5.2734 -1.8604,1.333 -4.2627,1.9996 -7.2071,1.9996 -1.9921,0 -3.7646,-0.3516 -5.3173,-1.0547 -1.5381,-0.7178 -2.7466,-1.6919 -3.6255,-2.9224 -0.8789,-1.2451 -1.3184,-2.5854 -1.3184,-4.021 h 6.0205 c 0.0586,1.1279 0.4761,1.9922 1.2525,2.5928 0.7763,0.6006 1.8164,0.9009 3.1201,0.9009 1.2158,0 2.1313,-0.2271 2.7466,-0.6812 0.6298,-0.4687 0.9448,-1.0767 0.9448,-1.8237 z m 21.2258,7.0093 c -3.487,0 -6.3284,-1.0694 -8.5256,-3.2081 -2.1826,-2.1386 -3.2739,-4.9877 -3.2739,-8.5473 v -0.6153 c 0,-2.3876 0.4614,-4.519 1.3842,-6.394 0.9229,-1.8896 2.2266,-3.3398 3.9112,-4.3506 1.6991,-1.0254 3.6331,-1.5381 5.8011,-1.5381 3.252,0 5.808,1.0254 7.668,3.0762 1.875,2.0508 2.813,4.9585 2.813,8.7231 v 2.5928 H 99.8774 c 0.2056,1.5528 0.8206,2.7979 1.8456,3.7354 1.04,0.9375 2.351,1.4062 3.933,1.4062 2.447,0 4.358,-0.8862 5.735,-2.6587 l 3.12,3.4937 c -0.952,1.3476 -2.241,2.4023 -3.867,3.164 -1.626,0.7471 -3.428,1.1207 -5.405,1.1207 z m -0.725,-19.5118 c -1.26,0 -2.285,0.4248 -3.076,1.2744 -0.777,0.8497 -1.275,2.0655 -1.4946,3.6475 h 8.8326 v -0.5054 c -0.029,-1.4062 -0.41,-2.4902 -1.142,-3.2519 -0.733,-0.7764 -1.773,-1.1646 -3.12,-1.1646 z m 19.973,-4.7021 0.198,2.7466 c 1.699,-2.1241 3.977,-3.1861 6.833,-3.1861 2.52,0 4.395,0.7398 5.625,2.2193 1.231,1.4795 1.86,3.6914 1.89,6.6357 V 39 h -6.35 V 23.7949 c 0,-1.3476 -0.293,-2.3218 -0.879,-2.9223 -0.586,-0.6153 -1.56,-0.9229 -2.923,-0.9229 -1.787,0 -3.127,0.7617 -4.021,2.2852 V 39 h -6.35 V 15.2256 Z m 26.982,-5.84474 v 5.84474 h 4.065 v 4.6582 h -4.065 V 31.749 c 0,0.8789 0.169,1.5088 0.506,1.8897 0.337,0.3808 0.981,0.5713 1.933,0.5713 0.703,0 1.326,-0.0513 1.868,-0.1538 v 4.812 c -1.245,0.3808 -2.527,0.5713 -3.845,0.5713 -4.453,0 -6.724,-2.2486 -6.812,-6.7457 v -12.81 h -3.472 v -4.6582 h 3.472 V 9.38086 Z m 18.545,30.05864 c -3.486,0 -6.328,-1.0694 -8.525,-3.2081 -2.183,-2.1386 -3.274,-4.9877 -3.274,-8.5473 v -0.6153 c 0,-2.3876 0.461,-4.519 1.384,-6.394 0.923,-1.8896 2.227,-3.3398 3.911,-4.3506 1.699,-1.0254 3.633,-1.5381 5.801,-1.5381 3.252,0 5.808,1.0254 7.668,3.0762 1.875,2.0508 2.813,4.9585 2.813,8.7231 v 2.5928 h -15.139 c 0.205,1.5528 0.82,2.7979 1.846,3.7354 1.04,0.9375 2.351,1.4062 3.933,1.4062 2.446,0 4.358,-0.8862 5.735,-2.6587 l 3.12,3.4937 c -0.953,1.3476 -2.242,2.4023 -3.868,3.164 -1.626,0.7471 -3.427,1.1207 -5.405,1.1207 z m -0.725,-19.5118 c -1.26,0 -2.285,0.4248 -3.076,1.2744 -0.776,0.8497 -1.275,2.0655 -1.494,3.6475 h 8.833 v -0.5054 c -0.03,-1.4062 -0.41,-2.4902 -1.143,-3.2519 -0.732,-0.7764 -1.772,-1.1646 -3.12,-1.1646 z m 14.458,15.9522 c 0,-1.0108 0.337,-1.8311 1.011,-2.461 0.688,-0.6298 1.545,-0.9448 2.571,-0.9448 1.04,0 1.897,0.315 2.57,0.9448 0.689,0.6299 1.033,1.4502 1.033,2.461 0,0.9961 -0.337,1.8091 -1.011,2.4389 -0.673,0.6153 -1.538,0.9229 -2.592,0.9229 -1.04,0 -1.897,-0.3076 -2.571,-0.9229 -0.674,-0.6298 -1.011,-1.4428 -1.011,-2.4389 z M 203.215,39 h -6.372 V 15.2256 h 6.372 z M 196.469,9.07324 c 0,-0.95215 0.315,-1.73584 0.945,-2.35107 0.645,-0.61524 1.516,-0.92285 2.615,-0.92285 1.084,0 1.948,0.30761 2.593,0.92285 0.644,0.61523 0.966,1.39892 0.966,2.35107 0,0.96676 -0.329,1.75786 -0.988,2.37306 -0.645,0.6152 -1.502,0.9228 -2.571,0.9228 -1.07,0 -1.934,-0.3076 -2.593,-0.9228 -0.644,-0.6152 -0.967,-1.4063 -0.967,-2.37306 z m 22.94,30.36626 c -3.487,0 -6.328,-1.0694 -8.526,-3.2081 -2.182,-2.1386 -3.274,-4.9877 -3.274,-8.5473 v -0.6153 c 0,-2.3876 0.462,-4.519 1.385,-6.394 0.923,-1.8896 2.226,-3.3398 3.911,-4.3506 1.699,-1.0254 3.633,-1.5381 5.801,-1.5381 3.252,0 5.808,1.0254 7.668,3.0762 1.875,2.0508 2.813,4.9585 2.813,8.7231 v 2.5928 h -15.14 c 0.205,1.5528 0.821,2.7979 1.846,3.7354 1.04,0.9375 2.351,1.4062 3.933,1.4062 2.446,0 4.358,-0.8862 5.735,-2.6587 l 3.12,3.4937 c -0.952,1.3476 -2.241,2.4023 -3.867,3.164 -1.626,0.7471 -3.428,1.1207 -5.405,1.1207 z m -0.725,-19.5118 c -1.26,0 -2.286,0.4248 -3.077,1.2744 -0.776,0.8497 -1.274,2.0655 -1.494,3.6475 h 8.833 v -0.5054 c -0.029,-1.4062 -0.41,-2.4902 -1.142,-3.2519 -0.733,-0.7764 -1.773,-1.1646 -3.12,-1.1646 z"
         fill="#ffffff"
         id="path75"
         style="filter:url(#filter0_d-4)" />
    </g>
  </g>
</svg>
